<?xml version="1.0" encoding="iso-8859-1"?>
<!-- Generator: Adobe Illustrator 19.0.0, SVG Export Plug-In . SVG Version: 6.00 Build 0)  -->
<svg version="1.1" id="Capa_1" xmlns="http://www.w3.org/2000/svg" xmlns:xlink="http://www.w3.org/1999/xlink" x="0px" y="0px"
	 viewBox="0 0 511.999 511.999" style="enable-background:new 0 0 511.999 511.999;" xml:space="preserve">
<g>
	<g>
		<path d="M202.371,91.704h-6.907v-6.907c0-4.144-3.359-7.504-7.504-7.504c-4.145,0-7.504,3.36-7.504,7.504v6.907h-6.907
			c-4.145,0-7.504,3.36-7.504,7.504s3.359,7.504,7.504,7.504h6.907v6.908c0,4.144,3.359,7.504,7.504,7.504
			c4.145,0,7.504-3.36,7.504-7.504v-6.908h6.907c4.145,0,7.504-3.36,7.504-7.504S206.516,91.704,202.371,91.704z"/>
	</g>
</g>
<g>
	<g>
		<path d="M338.447,91.704h-6.907v-6.907c0-4.144-3.359-7.504-7.504-7.504c-4.145,0-7.504,3.36-7.504,7.504v6.907h-6.907
			c-4.145,0-7.504,3.36-7.504,7.504s3.359,7.504,7.504,7.504h6.907v6.908c0,4.144,3.359,7.504,7.504,7.504
			c4.145,0,7.504-3.36,7.504-7.504v-6.908h6.907c4.145,0,7.504-3.36,7.504-7.504S342.592,91.704,338.447,91.704z"/>
	</g>
</g>
<g>
	<g>
		<path d="M202.371,194.778h-6.907v-6.907c0-4.144-3.359-7.504-7.504-7.504c-4.145,0-7.504,3.36-7.504,7.504v6.907h-6.907
			c-4.145,0-7.504,3.36-7.504,7.504s3.359,7.504,7.504,7.504h6.907v6.907c0,4.144,3.359,7.504,7.504,7.504
			c4.145,0,7.504-3.36,7.504-7.504v-6.907h6.907c4.145,0,7.504-3.36,7.504-7.504S206.516,194.778,202.371,194.778z"/>
	</g>
</g>
<g>
	<g>
		<path d="M338.448,194.778h-6.907v-6.907c0-4.144-3.359-7.504-7.504-7.504c-4.145,0-7.504,3.36-7.504,7.504v6.907h-6.907
			c-4.145,0-7.504,3.36-7.504,7.504s3.359,7.504,7.504,7.504h6.907v6.907c0,4.144,3.359,7.504,7.504,7.504
			c4.145,0,7.504-3.36,7.504-7.504v-6.907h6.907c4.145,0,7.504-3.36,7.504-7.504S342.593,194.778,338.448,194.778z"/>
	</g>
</g>
<g>
	<g>
		<path d="M464.133,212.493h-99.305c-8.483,0-15.385,6.901-15.385,15.384v20.316c0,8.483,6.901,15.384,15.385,15.384h1.443v33.968
			c-6.68-5.262-15.096-8.414-24.239-8.414H167.989c-9.143,0-17.559,3.151-24.238,8.414v-34.041h3.417
			c8.483,0,15.385-6.901,15.385-15.384v-20.316c0-8.483-6.901-15.384-15.385-15.384H47.863c-8.483,0-15.385,6.901-15.385,15.384
			v20.316c0,8.483,6.901,15.384,15.385,15.384h3.417v95.777c0,15.322,11.801,27.933,26.791,29.24v14.967
			c0,11.886,9.671,21.556,21.557,21.556h17.196v71.947H106.08c-4.145,0-7.504,3.36-7.504,7.504c0,4.144,3.359,7.504,7.504,7.504
			h74.98c4.145,0,7.504-3.36,7.504-7.504c0-4.144-3.359-7.504-7.504-7.504h-10.744v-71.947h169.391v71.947h-10.744
			c-4.145,0-7.504,3.36-7.504,7.504c0,4.144,3.359,7.504,7.504,7.504h74.981c4.145,0,7.504-3.36,7.504-7.504
			c0-4.144-3.359-7.504-7.504-7.504h-10.745v-71.947h17.197c11.886,0,21.556-9.67,21.556-21.556v-14.967
			c14.99-1.306,26.791-13.918,26.791-29.24v-95.704h5.392c8.483,0,15.385-6.901,15.385-15.384v-20.316
			C479.518,219.395,472.617,212.493,464.133,212.493z M167.989,304.141h174.044c13.366,0,24.239,10.873,24.239,24.239v45.252H143.75
			V328.38C143.75,315.014,154.624,304.141,167.989,304.141z M47.863,248.496c-0.207,0-0.376-0.169-0.376-0.376v-20.316
			c0-0.207,0.169-0.376,0.376-0.376h99.305c0.207,0,0.376,0.169,0.376,0.376v20.316c0,0.207-0.169,0.376-0.376,0.376H47.863z
			 M80.639,373.633L80.639,373.633c-7.913-0.001-14.351-6.439-14.351-14.351v-95.777h62.454v110.128H80.639z M155.307,496.991
			h-23.474v-71.946h23.474V496.991z M378.189,496.991h-23.474v-71.946h23.474V496.991z M416.942,403.488
			c0,3.611-2.937,6.548-6.547,6.548H99.628c-3.611,0-6.549-2.937-6.549-6.548V388.64h323.863V403.488z M443.733,359.282
			c0,7.913-6.438,14.35-14.351,14.35H381.28V263.578h62.453V359.282z M464.51,248.194c0,0.207-0.169,0.376-0.376,0.376h-99.305
			c-0.207,0-0.376-0.169-0.376-0.376v-20.316c0-0.207,0.169-0.376,0.376-0.376h99.305c0.207,0,0.376,0.169,0.376,0.376V248.194z"/>
	</g>
</g>
<g>
	<g>
		<path d="M422.01,61.843C422.012,27.743,394.269,0,360.169,0H149.852c-34.101,0-61.843,27.743-61.843,61.843v122.981
			c0.001,4.145,3.36,7.504,7.505,7.504c4.145,0,7.504-3.36,7.504-7.504V61.843c0-25.825,21.01-46.835,46.834-46.835h210.316
			c25.824,0,46.834,21.01,46.834,46.87l0.581,122.981c0.02,4.132,3.375,7.469,7.503,7.469c0.012,0,0.024,0,0.036,0
			c4.145-0.02,7.489-3.395,7.469-7.54L422.01,61.843z"/>
	</g>
</g>
<g>
</g>
<g>
</g>
<g>
</g>
<g>
</g>
<g>
</g>
<g>
</g>
<g>
</g>
<g>
</g>
<g>
</g>
<g>
</g>
<g>
</g>
<g>
</g>
<g>
</g>
<g>
</g>
<g>
</g>
</svg>
